<mxfile host="app.diagrams.net" modified="2024-04-09T18:13:15.015Z" agent="Mozilla/5.0 (Windows NT 10.0; Win64; x64) AppleWebKit/537.36 (KHTML, like Gecko) Chrome/123.0.0.0 Safari/537.36 Edg/123.0.0.0" version="24.2.3" etag="8i8w73hs7dZjdLhjkCKx" type="github">
  <diagram name="Page-1" id="Dup1afT9n0yJMiJILod7">
    <mxGraphModel>
      <root>
        <mxCell id="0" />
        <mxCell id="1" parent="0" />
      </root>
    </mxGraphModel>
  </diagram>
</mxfile>
